<?xml version="1.0" standalone="no"?>
<!DOCTYPE svg PUBLIC "-//W3C//DTD SVG 20010904//EN"
 "http://www.w3.org/TR/2001/REC-SVG-20010904/DTD/svg10.dtd">
<svg version="1.0" xmlns="http://www.w3.org/2000/svg"
 width="300.000000pt" height="300.000000pt" viewBox="0 0 300.000000 300.000000"
 preserveAspectRatio="xMidYMid meet">
<metadata>
Created by potrace 1.10, written by Peter Selinger 2001-2011
</metadata>
<g transform="translate(0.000000,300.000000) scale(0.100000,-0.100000)"
fill="#000000" stroke="none">
<path d="M774 2366 c-50 -22 -74 -61 -74 -121 0 -39 6 -60 22 -80 44 -56 29
-55 778 -55 761 0 741 -2 780 62 41 68 14 165 -55 194 -49 20 -1404 20 -1451
0z m1418 -36 c98 -28 88 -156 -13 -175 -19 -3 -339 -5 -712 -3 l-679 3 -24 28
c-45 52 -25 128 39 146 46 13 1342 14 1389 1z"/>
<path d="M774 1696 c-50 -22 -74 -61 -74 -121 0 -38 6 -60 21 -79 46 -58 17
-56 774 -56 767 0 746 -2 785 62 41 68 14 165 -55 194 -49 20 -1404 20 -1451
0z m1459 -55 c22 -18 32 -77 19 -106 -26 -57 -10 -56 -768 -53 l-696 3 -24 28
c-53 62 -21 137 62 146 27 3 351 4 720 1 543 -4 674 -8 687 -19z"/>
<path d="M783 1029 c-75 -22 -111 -140 -62 -203 46 -58 16 -56 781 -56 680 0
704 1 735 20 81 49 85 173 6 226 -27 18 -59 19 -728 21 -414 1 -713 -2 -732
-8z m1444 -54 c27 -19 40 -77 25 -110 -26 -57 -10 -56 -768 -53 l-696 3 -24
28 c-32 38 -32 90 1 122 l24 25 708 0 c620 0 711 -2 730 -15z"/>
</g>
</svg>
