 <svg  version="1.0" xmlns="http://www.w3.org/2000/svg"  width="300.000000pt" height="307.000000pt" viewBox="0 0 300.000000 307.000000"  preserveAspectRatio="xMidYMid meet">  <g transform="translate(0.000000,307.000000) scale(0.100000,-0.100000)" fill="#ffffff" stroke="none"> <path d="M711 2919 c-222 -44 -394 -175 -495 -376 -74 -146 -71 -102 -71 -1028 l0 -830 23 -75 c40 -128 88 -206 182 -301 73 -73 100 -94 180 -132 158 -75 112 -72 1005 -72 l800 0 75 23 c128 40 206 88 300 182 69 68 94 102 127 170 82 168 78 112 78 1035 0 919 3 871 -74 1030 -83 168 -218 286 -406 352 l-80 28 -800 2 c-440 0 -820 -3 -844 -8z m1712 -61 c111 -40 183 -84 258 -158 79 -78 129 -161 163 -270 l26 -81 0 -832 0 -831 -25 -80 c-62 -204 -218 -362 -430 -434 l-80 -27 -800 0 c-744 0 -805 1 -864 18 -183 52 -334 175 -416 338 -73 144 -70 100 -70 1024 l0 830 28 80 c41 116 81 181 162 261 98 98 208 156 346 183 24 5 400 8 834 8 l790 -2 78 -27z"/> <path d="M795 2734 c-198 -48 -374 -211 -447 -414 l-23 -65 -3 -710 c-3 -636 -1 -717 14 -780 55 -233 244 -418 479 -470 60 -14 162 -15 745 -13 667 3 676 3 740 25 192 66 337 209 408 405 l27 73 3 697 c3 766 2 778 -57 905 -81 172 -243 305 -423 348 -92 21 -1373 21 -1463 -1z m1460 -39 c33 -9 89 -30 125 -48 89 -43 214 -168 258 -258 62 -128 62 -126 62 -871 0 -450 -4 -695 -11 -730 -6 -29 -29 -91 -51 -138 -76 -158 -229 -279 -403 -315 -57 -12 -186 -15 -711 -15 -606 0 -645 1 -718 20 -114 29 -190 73 -276 160 -81 81 -127 160 -155 265 -23 89 -23 1411 0 1500 56 213 213 372 425 429 84 22 1369 23 1455 1z"/> <path d="M2208 2461 c-135 -44 -195 -194 -125 -313 81 -139 283 -139 364 0 58 99 26 230 -71 287 -48 28 -125 40 -168 26z m154 -67 c49 -32 72 -76 71 -141 -1 -164 -219 -229 -309 -94 -31 48 -38 88 -24 141 30 112 162 159 262 94z"/> <path d="M1425 2219 c-228 -35 -424 -178 -529 -385 -193 -381 2 -851 409 -990 107 -36 267 -44 380 -19 394 87 641 508 524 892 -37 122 -86 200 -184 299 -73 74 -106 98 -175 132 -47 23 -111 48 -143 56 -77 20 -208 27 -282 15z m323 -72 c106 -37 177 -82 259 -165 129 -129 202 -323 190 -502 -7 -100 -35 -199 -80 -285 -46 -87 -183 -221 -274 -268 -334 -173 -743 -44 -910 287 -192 380 11 836 421 947 106 29 293 22 394 -14z"/> <path d="M1393 2075 c-250 -68 -423 -295 -423 -554 0 -168 52 -294 169 -412 226 -225 551 -227 777 -4 186 183 226 450 103 686 -48 91 -147 193 -231 235 -121 62 -277 81 -395 49z m268 -41 c187 -56 324 -196 374 -384 29 -107 15 -256 -34 -364 -30 -66 -97 -148 -163 -199 -206 -156 -488 -136 -670 46 -107 108 -158 230 -158 382 0 154 52 280 159 385 68 67 144 112 228 135 68 19 199 18 264 -1z"/> </g> </svg> 