 <svg  version="1.0" xmlns="http://www.w3.org/2000/svg"  width="216.000000pt" height="233.000000pt" viewBox="0 0 216.000000 233.000000"  preserveAspectRatio="xMidYMid meet">  <g transform="translate(0.000000,233.000000) scale(0.100000,-0.100000)" fill="#ffffff" stroke="none"> <path d="M1973 2250 c0 -47 2 -66 4 -42 2 23 2 61 0 85 -2 23 -4 4 -4 -43z"/> <path d="M895 2283 c-60 -8 -216 -54 -280 -83 -145 -65 -263 -155 -371 -283 -87 -103 -172 -267 -204 -392 -26 -99 -38 -235 -21 -235 6 0 11 17 11 41 0 22 4 38 8 35 5 -3 9 14 11 37 1 23 6 46 12 52 5 5 9 18 9 30 0 11 9 44 20 73 11 28 18 52 15 52 -3 0 1 10 9 23 7 12 16 34 20 50 4 15 11 27 16 27 6 0 10 5 10 11 0 6 14 30 30 55 17 24 28 44 25 44 -3 0 4 10 15 23 63 68 100 113 100 125 0 7 5 10 10 7 6 -3 15 -3 21 1 8 4 7 9 -2 15 -11 7 -11 9 2 9 9 0 25 8 37 18 11 10 33 27 47 38 15 10 32 24 39 29 6 6 48 29 93 52 178 93 420 134 624 108 89 -11 250 -56 312 -86 33 -16 64 -26 70 -22 5 3 7 2 4 -4 -5 -8 94 -73 113 -73 4 0 10 -7 14 -15 3 -8 17 -20 31 -25 14 -5 25 -14 25 -19 0 -5 9 -11 20 -14 11 -3 24 -17 30 -32 5 -14 14 -23 20 -20 5 3 10 3 10 -2 0 -4 11 -21 25 -37 14 -16 25 -32 25 -35 0 -3 13 -20 29 -37 16 -17 39 -51 51 -75 13 -24 28 -47 34 -51 6 -4 7 -8 2 -8 -5 0 -4 -6 1 -12 5 -7 18 -35 28 -63 9 -27 23 -63 30 -80 7 -16 17 -60 23 -96 6 -37 20 -86 31 -110 l21 -44 -5 75 c-20 326 -253 657 -570 814 -171 84 -316 117 -512 115 -76 -1 -151 -4 -168 -6z"/> <path d="M490 1862 c-16 -16 -33 -46 -38 -68 -14 -53 -23 -146 -14 -140 14 8 7 -99 -8 -125 -66 -117 -64 -108 -68 -232 -4 -117 17 -257 39 -257 5 0 9 -8 9 -19 0 -10 7 -24 15 -31 8 -7 15 -17 15 -22 0 -6 14 -26 30 -45 17 -18 30 -31 30 -28 0 3 9 -4 20 -15 26 -26 98 -62 110 -55 6 3 10 1 10 -5 0 -6 4 -9 9 -6 5 4 11 2 13 -3 1 -4 32 -15 68 -23 45 -9 65 -18 64 -28 -3 -39 -11 -56 -29 -67 -25 -15 -120 -17 -147 -2 -24 13 -88 75 -88 85 0 11 -87 94 -99 94 -6 0 -11 4 -11 10 0 5 -3 9 -7 8 -5 -1 -26 4 -48 10 -54 16 -58 15 -87 -11 -27 -25 -43 -57 -27 -57 6 0 8 -4 5 -8 -5 -8 38 -51 81 -80 11 -8 28 -34 39 -58 10 -24 22 -44 26 -44 3 0 9 -13 13 -30 4 -16 23 -42 43 -59 20 -17 45 -38 55 -46 31 -27 69 -37 162 -44 l90 -6 3 -106 c2 -92 0 -107 -14 -113 -9 -3 -24 -1 -32 6 -12 10 -14 10 -8 1 5 -9 2 -11 -8 -7 -9 3 -16 9 -16 13 0 5 -17 13 -38 19 -20 6 -67 32 -102 57 -36 24 -74 49 -86 54 -32 14 -177 164 -227 234 -48 68 -121 197 -110 197 3 0 -1 8 -9 18 -8 9 -23 54 -33 100 -10 45 -23 82 -28 82 -5 0 -7 6 -4 13 5 12 -28 155 -38 165 -11 11 -4 -100 11 -178 17 -89 52 -196 91 -275 76 -151 223 -320 362 -414 77 -53 219 -120 268 -128 57 -10 63 7 63 172 l0 141 -83 -4 c-99 -5 -179 14 -227 54 -17 15 -47 60 -66 100 -33 70 -69 115 -130 160 -18 14 -25 26 -21 37 17 45 151 -9 205 -83 76 -106 115 -130 207 -130 81 0 121 19 129 63 4 19 18 51 31 71 14 20 25 38 25 39 0 1 -21 3 -48 4 -73 3 -181 32 -245 66 -116 61 -174 164 -186 329 -11 157 8 235 76 309 21 23 22 29 12 55 -15 38 -13 167 4 224 10 34 18 46 35 48 34 5 119 -26 205 -75 l77 -44 78 17 c104 22 284 22 387 0 l80 -17 80 46 c80 46 159 75 201 75 18 0 26 -9 34 -37 18 -60 24 -186 10 -227 -11 -34 -10 -38 24 -78 74 -86 96 -223 60 -380 -42 -186 -155 -272 -405 -309 l-80 -11 20 -22 c50 -53 56 -86 59 -335 1 -164 6 -238 14 -249 44 -52 349 113 487 264 178 194 292 460 291 679 -1 55 -14 46 -25 -16 -3 -19 -13 -57 -21 -85 -8 -29 -14 -56 -13 -60 1 -5 -3 -22 -9 -37 -7 -16 -12 -35 -12 -42 0 -8 -11 -39 -24 -69 -13 -30 -22 -57 -18 -60 3 -3 0 -6 -6 -6 -7 0 -11 -3 -10 -7 1 -5 -5 -19 -13 -33 -9 -14 -37 -59 -62 -100 -46 -75 -159 -201 -191 -213 -10 -4 -14 -11 -11 -17 3 -5 0 -10 -8 -10 -8 0 -24 -9 -37 -20 -13 -11 -26 -20 -29 -20 -3 0 -18 -11 -31 -23 -14 -13 -38 -27 -52 -30 -15 -4 -33 -13 -40 -20 -7 -8 -18 -12 -24 -10 -7 2 -19 -3 -28 -12 -9 -9 -20 -14 -25 -10 -5 3 -12 1 -15 -3 -3 -5 -15 -9 -28 -8 -22 1 -22 2 -26 226 -2 124 -7 238 -13 254 -17 53 -12 65 29 71 105 18 252 80 252 107 0 6 3 9 6 5 12 -11 62 45 89 101 41 84 60 136 46 128 -5 -3 -3 11 5 32 19 53 18 188 -3 248 -15 45 -57 122 -72 134 -4 3 -7 57 -6 120 0 103 -3 120 -25 165 -33 65 -59 73 -148 46 -37 -11 -77 -29 -89 -40 -11 -11 -23 -17 -26 -14 -3 3 -23 -5 -43 -18 -36 -22 -41 -22 -119 -11 -108 16 -305 15 -385 -2 -47 -10 -72 -11 -90 -3 -14 6 -28 10 -32 9 -5 -1 -8 2 -8 7 0 11 -80 54 -80 43 0 -4 -4 -2 -8 4 -8 13 -104 44 -135 44 -10 0 -31 -13 -47 -28z"/> <path d="M460 725 c0 -15 26 -32 36 -23 2 3 2 13 -2 22 -8 20 -34 21 -34 1z"/> <path d="M515 670 c-9 -15 4 -30 26 -30 17 0 18 3 9 20 -12 22 -25 26 -35 10z"/> <path d="M592 614 c2 -11 11 -20 22 -22 13 -3 17 1 14 14 -2 11 -11 20 -22 22 -13 3 -17 -1 -14 -14z"/> <path d="M773 623 c-15 -5 -18 -33 -4 -33 17 0 41 12 41 20 0 11 -22 18 -37 13z"/> <path d="M675 600 c-8 -12 20 -24 35 -15 5 3 10 10 10 16 0 12 -37 12 -45 -1z"/> <path d="M1973 250 c0 -47 2 -66 4 -42 2 23 2 61 0 85 -2 23 -4 4 -4 -43z"/> </g> </svg> 