<?xml version="1.0" standalone="no"?>
<!DOCTYPE svg PUBLIC "-//W3C//DTD SVG 20010904//EN"
 "http://www.w3.org/TR/2001/REC-SVG-20010904/DTD/svg10.dtd">
<svg version="1.0" xmlns="http://www.w3.org/2000/svg"
 width="900.000000pt" height="900.000000pt" viewBox="0 0 900.000000 900.000000"
 preserveAspectRatio="xMidYMid meet">
<metadata>
Created by potrace 1.10, written by Peter Selinger 2001-2011
</metadata>
<g transform="translate(0.000000,900.000000) scale(0.100000,-0.100000)"
fill="#ffffff" stroke="none">
<path d="M5595 6789 c-60 -11 -121 -23 -135 -28 -14 -5 -45 -14 -70 -21 -46
-12 -73 -23 -100 -39 -8 -4 -50 -25 -92 -45 -43 -20 -78 -41 -78 -46 0 -4 -19
-18 -43 -29 -41 -20 -70 -46 -190 -172 -54 -57 -152 -210 -163 -254 -3 -13
-12 -29 -20 -36 -8 -6 -14 -22 -14 -34 0 -12 -7 -28 -15 -35 -8 -7 -15 -19
-15 -27 0 -9 -7 -36 -15 -62 -16 -52 -45 -255 -45 -317 0 -23 -5 -56 -11 -73
l-12 -33 -81 6 c-44 3 -106 9 -136 15 -145 25 -211 40 -224 50 -7 6 -34 13
-60 15 -26 3 -66 12 -89 20 -23 8 -69 23 -102 32 -33 10 -90 33 -127 51 -37
18 -73 33 -81 33 -7 0 -22 7 -33 15 -10 8 -28 15 -40 15 -11 0 -29 8 -38 19
-9 10 -31 21 -48 25 -17 3 -52 19 -78 35 -25 16 -56 31 -68 35 -11 4 -24 16
-27 27 -4 10 -14 19 -23 19 -9 0 -35 11 -57 25 -22 13 -49 28 -60 34 -59 27
-320 237 -422 339 -29 28 -56 52 -61 52 -5 0 -22 16 -36 35 -15 20 -54 58 -87
85 -72 60 -106 65 -162 23 -81 -62 -128 -176 -167 -408 -18 -109 -2 -325 34
-443 22 -75 90 -223 128 -282 48 -73 32 -112 -43 -103 -47 5 -51 4 -83 -30
-21 -23 -37 -51 -41 -75 -14 -86 29 -286 92 -421 21 -44 104 -175 138 -216 85
-104 110 -131 129 -136 14 -4 20 -12 19 -27 -2 -14 3 -22 13 -22 9 0 34 -14
55 -31 47 -37 52 -72 12 -91 -34 -17 -45 -43 -14 -33 14 4 32 0 49 -11 23 -16
54 -19 202 -22 166 -4 176 -3 200 17 21 17 23 22 10 31 -8 5 -28 10 -43 10
-35 0 -165 39 -173 51 -3 5 -12 9 -19 9 -30 0 -189 106 -262 174 -65 61 -159
174 -200 241 -73 120 -134 317 -149 483 -8 85 -1 89 68 43 70 -46 204 -95 295
-106 29 -4 55 -11 59 -16 7 -12 64 -12 64 1 0 13 -32 50 -43 50 -27 0 -162
123 -212 194 -11 15 -25 33 -31 40 -14 15 -57 89 -82 141 -51 107 -76 193 -92
310 -6 50 -13 101 -15 115 -10 64 34 298 72 387 7 17 13 36 13 41 0 9 6 23 46
102 20 40 38 35 77 -23 88 -127 426 -430 585 -522 9 -5 19 -12 22 -15 10 -10
69 -50 74 -50 3 0 40 -21 83 -46 43 -25 85 -49 93 -54 51 -30 253 -122 340
-155 101 -38 142 -52 275 -90 33 -9 75 -21 92 -26 18 -6 54 -14 80 -19 27 -4
73 -13 103 -19 140 -27 239 -41 286 -41 28 0 66 -5 83 -11 20 -7 36 -8 42 -2
5 5 3 54 -7 124 -15 106 -15 125 -1 230 15 111 28 172 51 234 28 75 102 212
143 263 176 219 358 337 638 411 129 34 389 28 535 -13 171 -47 342 -141 451
-247 50 -48 72 -59 84 -39 3 6 18 10 33 10 24 0 63 10 157 42 17 5 45 14 64
18 18 5 38 13 44 19 6 6 19 11 28 11 10 0 30 6 46 14 150 73 188 94 218 119
43 35 44 47 4 47 -26 0 -187 -58 -247 -89 -47 -25 -277 -91 -314 -91 -33 0
-55 8 -93 35 -28 19 -59 38 -70 44 -12 5 -27 16 -34 25 -7 9 -18 16 -23 16 -5
0 -35 15 -67 33 -31 19 -69 37 -84 41 -15 3 -27 13 -27 22 0 12 -6 15 -22 11
-11 -3 -33 0 -47 7 -59 31 -237 62 -366 66 -44 1 -82 3 -85 4 -3 2 -54 -5
-115 -15z"/>
<path d="M7260 6623 c0 -9 -6 -24 -14 -32 -8 -9 -25 -36 -38 -61 -89 -168
-221 -321 -335 -389 -64 -38 -92 -66 -79 -79 8 -7 135 23 267 64 26 8 54 14
63 14 14 0 49 13 121 46 17 7 42 18 58 23 15 6 27 15 27 20 0 5 10 12 23 15
21 6 21 7 4 17 -25 15 -103 15 -121 0 -22 -18 -80 -10 -84 12 -2 10 3 17 11
17 17 0 27 21 27 55 0 13 5 27 10 30 6 4 25 37 44 73 33 66 51 147 40 177 -8
20 -24 19 -24 -2z"/>
<path d="M7325 6122 c-173 -192 -318 -325 -464 -429 -3 -2 -4 -67 -2 -146 1
-78 -3 -172 -9 -207 -6 -36 -15 -103 -19 -150 -12 -113 -30 -216 -47 -263 -8
-20 -14 -50 -14 -66 0 -16 -7 -42 -15 -57 -8 -16 -15 -38 -15 -49 0 -11 -12
-51 -26 -90 -14 -38 -29 -81 -34 -95 -5 -14 -18 -50 -30 -80 -12 -30 -24 -63
-27 -73 -3 -11 -19 -44 -34 -75 -16 -31 -29 -61 -29 -68 0 -6 -7 -17 -15 -24
-8 -7 -15 -18 -15 -24 0 -16 -61 -128 -122 -224 -16 -24 -28 -45 -28 -47 0 -6
-88 -134 -138 -200 -162 -215 -449 -494 -647 -630 -138 -95 -151 -103 -190
-125 -22 -12 -53 -30 -70 -40 -59 -36 -259 -132 -355 -169 -30 -12 -64 -26
-75 -30 -112 -45 -372 -115 -485 -131 -36 -6 -72 -13 -80 -16 -86 -35 -704
-56 -871 -30 -55 9 -120 16 -145 16 -25 0 -53 4 -63 9 -9 5 -46 14 -82 20
-102 16 -270 56 -301 72 -10 5 -34 13 -55 18 -41 10 -90 27 -140 48 -17 7 -36
13 -41 13 -6 0 -23 6 -39 14 -15 8 -39 19 -53 24 -40 16 -175 80 -295 138 -61
30 -116 54 -123 54 -24 0 -11 -21 38 -67 57 -52 129 -98 210 -132 30 -13 91
-41 135 -61 143 -68 476 -170 655 -200 275 -47 421 -59 665 -55 255 5 388 13
420 25 14 5 55 12 92 16 38 4 78 11 91 15 12 5 53 13 90 19 37 6 90 17 117 26
28 8 88 26 135 40 47 14 100 32 118 40 18 8 46 14 62 14 16 0 35 8 42 18 7 9
38 25 68 36 72 24 309 142 336 167 11 10 27 19 36 19 9 0 21 7 28 15 7 8 38
29 69 47 31 18 61 36 66 40 6 5 37 28 70 53 33 24 67 50 75 57 8 7 28 19 43
25 15 7 27 18 27 25 0 15 63 68 80 68 6 0 16 11 22 25 6 13 18 27 28 30 9 3
38 31 66 62 27 31 67 72 88 92 21 20 43 41 47 46 4 6 24 29 43 51 20 23 36 46
36 52 0 6 9 16 20 22 11 6 20 15 20 21 0 5 26 42 58 81 31 38 71 97 89 129 17
33 42 74 56 92 33 44 127 212 127 228 0 7 8 22 18 33 10 12 31 55 47 96 15 41
37 87 47 102 10 15 21 40 23 55 2 15 12 48 22 73 11 25 26 68 33 95 7 28 16
55 20 60 4 6 10 26 13 45 2 19 12 67 22 105 38 156 56 244 66 330 6 50 12 106
15 125 2 19 6 89 7 155 2 91 7 128 20 153 10 18 15 36 13 41 -3 5 12 20 33 34
48 32 291 271 317 312 10 17 27 36 36 43 10 7 18 22 18 32 0 10 4 22 10 25 16
10 42 73 35 84 -11 18 -18 13 -90 -67z"/>
<path d="M2670 4185 c-13 -34 -13 -31 11 -111 12 -38 30 -77 41 -87 13 -10 18
-25 15 -37 -3 -12 0 -20 8 -20 16 0 45 -44 45 -69 0 -14 5 -18 20 -14 13 3 20
0 20 -8 0 -20 138 -163 186 -192 22 -14 49 -33 58 -43 30 -29 87 -65 138 -85
27 -10 59 -25 71 -33 12 -8 38 -17 57 -21 38 -8 79 -34 80 -51 0 -23 -90 -82
-180 -118 -25 -10 -67 -27 -95 -38 -110 -45 -199 -72 -300 -92 -121 -24 -346
-48 -476 -51 -64 -1 -121 -5 -127 -9 -7 -4 -21 -2 -32 4 -16 9 -22 8 -26 -4
-3 -8 -15 -18 -26 -22 -35 -11 -6 -21 101 -34 123 -15 404 -6 488 16 30 8 67
14 84 14 16 0 46 7 66 15 19 8 47 15 62 15 14 0 39 7 55 15 15 8 36 15 45 15
9 0 29 7 45 15 15 8 36 15 45 15 10 0 26 7 37 15 10 8 26 15 34 15 8 0 74 30
145 66 135 69 147 75 230 125 28 16 61 35 75 42 57 27 42 56 -28 55 -282 -5
-629 193 -810 465 -29 43 -52 80 -52 84 0 3 -14 29 -32 57 -17 28 -34 64 -37
80 -8 39 -28 44 -41 11z"/>
</g>
</svg>
